<svg xmlns="http://www.w3.org/2000/svg" width="1180" height="470" viewBox="0 0 1180 470" font-family="Segoe UI, Arial, sans-serif">
<rect width="1180" height="470" fill="#fff"/>
<text x="40" y="44" font-size="17" font-weight="800" fill="#0d1d2b" text-anchor="start" letter-spacing="1.5">1 · МАКЕТ ДЛЯ ПЛЁНКИ</text>
<text x="40" y="68" font-size="13" font-weight="600" fill="#6e8296" text-anchor="start">растянут по ширине на длину контура волны</text>
<rect x="40" y="90" width="440" height="150" fill="#eef4f9" stroke="#dce6ef"/>
<text x="0" y="0" font-size="50" font-weight="800" fill="#0d1d2b" text-anchor="start" transform="translate(58 185) scale(1.3 1)">АйТек</text>
<text x="0" y="0" font-size="50" font-weight="800" fill="#0e8fe0" text-anchor="start" transform="translate(298 185) scale(1.3 1)">·КЦОД</text>
<line x1="40" y1="258" x2="480" y2="258" stroke="#0e8fe0" stroke-width="2"/>
<path d="M40 258 l10 -5 v10 z" fill="#0e8fe0"/><path d="M480 258 l-10 -5 v10 z" fill="#0e8fe0"/>
<text x="260" y="278" font-size="12" font-weight="700" fill="#0e8fe0" text-anchor="middle">тянем шире</text>
<path d="M540 165 h60" stroke="#0d1d2b" stroke-width="3"/><path d="M600 165 l-12 -7 v14 z" fill="#0d1d2b"/>
<text x="570" y="150" font-size="11" font-weight="700" fill="#6e8296" text-anchor="middle">оклейка</text>
<text x="570" y="190" font-size="11" font-weight="700" fill="#6e8296" text-anchor="middle">на гофру</text>
<text x="640" y="44" font-size="17" font-weight="800" fill="#0d1d2b" text-anchor="start" letter-spacing="1.5">2 · НА СТЕНЕ</text>
<text x="640" y="68" font-size="13" font-weight="600" fill="#6e8296" text-anchor="start">после облегания волны читается верно</text>
<clipPath id="cw"><rect x="640" y="90" width="460" height="150"/></clipPath>
<g clip-path="url(#cw)">
<rect x="640" y="90" width="460" height="150" fill="#0e518d"/>
<rect x="640" y="90" width="11" height="150" fill="#0a3f6e" opacity="0.55"/>
<rect x="653" y="90" width="7" height="150" fill="#2f6fa8" opacity="0.5"/>
<rect x="666" y="90" width="11" height="150" fill="#0a3f6e" opacity="0.55"/>
<rect x="679" y="90" width="7" height="150" fill="#2f6fa8" opacity="0.5"/>
<rect x="692" y="90" width="11" height="150" fill="#0a3f6e" opacity="0.55"/>
<rect x="705" y="90" width="7" height="150" fill="#2f6fa8" opacity="0.5"/>
<rect x="718" y="90" width="11" height="150" fill="#0a3f6e" opacity="0.55"/>
<rect x="731" y="90" width="7" height="150" fill="#2f6fa8" opacity="0.5"/>
<rect x="744" y="90" width="11" height="150" fill="#0a3f6e" opacity="0.55"/>
<rect x="757" y="90" width="7" height="150" fill="#2f6fa8" opacity="0.5"/>
<rect x="770" y="90" width="11" height="150" fill="#0a3f6e" opacity="0.55"/>
<rect x="783" y="90" width="7" height="150" fill="#2f6fa8" opacity="0.5"/>
<rect x="796" y="90" width="11" height="150" fill="#0a3f6e" opacity="0.55"/>
<rect x="809" y="90" width="7" height="150" fill="#2f6fa8" opacity="0.5"/>
<rect x="822" y="90" width="11" height="150" fill="#0a3f6e" opacity="0.55"/>
<rect x="835" y="90" width="7" height="150" fill="#2f6fa8" opacity="0.5"/>
<rect x="848" y="90" width="11" height="150" fill="#0a3f6e" opacity="0.55"/>
<rect x="861" y="90" width="7" height="150" fill="#2f6fa8" opacity="0.5"/>
<rect x="874" y="90" width="11" height="150" fill="#0a3f6e" opacity="0.55"/>
<rect x="887" y="90" width="7" height="150" fill="#2f6fa8" opacity="0.5"/>
<rect x="900" y="90" width="11" height="150" fill="#0a3f6e" opacity="0.55"/>
<rect x="913" y="90" width="7" height="150" fill="#2f6fa8" opacity="0.5"/>
<rect x="926" y="90" width="11" height="150" fill="#0a3f6e" opacity="0.55"/>
<rect x="939" y="90" width="7" height="150" fill="#2f6fa8" opacity="0.5"/>
<rect x="952" y="90" width="11" height="150" fill="#0a3f6e" opacity="0.55"/>
<rect x="965" y="90" width="7" height="150" fill="#2f6fa8" opacity="0.5"/>
<rect x="978" y="90" width="11" height="150" fill="#0a3f6e" opacity="0.55"/>
<rect x="991" y="90" width="7" height="150" fill="#2f6fa8" opacity="0.5"/>
<rect x="1004" y="90" width="11" height="150" fill="#0a3f6e" opacity="0.55"/>
<rect x="1017" y="90" width="7" height="150" fill="#2f6fa8" opacity="0.5"/>
<rect x="1030" y="90" width="11" height="150" fill="#0a3f6e" opacity="0.55"/>
<rect x="1043" y="90" width="7" height="150" fill="#2f6fa8" opacity="0.5"/>
<rect x="1056" y="90" width="11" height="150" fill="#0a3f6e" opacity="0.55"/>
<rect x="1069" y="90" width="7" height="150" fill="#2f6fa8" opacity="0.5"/>
<rect x="1082" y="90" width="11" height="150" fill="#0a3f6e" opacity="0.55"/>
<rect x="1095" y="90" width="7" height="150" fill="#2f6fa8" opacity="0.5"/>
<text x="662" y="185" font-size="44" font-weight="800" fill="#f5f8fb" text-anchor="start">АйТек</text>
<text x="842" y="185" font-size="44" font-weight="800" fill="#0e8fe0" text-anchor="start">·КЦОД</text>
</g>
<rect x="640" y="90" width="460" height="150" fill="none" stroke="#dce6ef"/>
<rect x="40" y="330" width="1100" height="100" rx="4" fill="#eef4f9" stroke="#dce6ef"/>
<text x="60" y="364" font-size="14" font-weight="800" fill="#0d1d2b" text-anchor="start">Принцип (любой логотип, любой размер, любая волна):</text>
<text x="60" y="392" font-size="15" font-weight="800" fill="#0e8fe0" text-anchor="start">растяжка по ширине = длина металла по контуру волны  ÷  её видимая ширина спереди</text>
<text x="60" y="416" font-size="13.5" font-weight="600" fill="#6e8296" text-anchor="start">Тянем только по ширине (по высоте волна плоская). Глубже волна - больше растяжка. Замерьте профиль своего контейнера.</text>
</svg>